# xmcd CD database file
#
# Track frame offsets:
#	150
#	19350
#	34335
#	52762
#	69485
#	97875
#	111885
#	132232
#	151630
#	162182
#
# Disc length: 2471 seconds
#
# Revision: 3
# Processed by: cddbd v1.5.1PL0 Copyright (c) Steve Scherf et al.
# Submitted via: CDex 1.51
#
DISCID=7509a50a
DTITLE=Alice Cooper - Billion Dollar Babies
DYEAR=1973
DGENRE=
TTITLE0=Hello Hooray
TTITLE1=Raped And Freezin'
TTITLE2=Elected
TTITLE3=Billion Dollar Babies
TTITLE4=Unfinished Sweet
TTITLE5=No More Mr. Nice Guy
TTITLE6=Generation Landslide
TTITLE7=Sick Things
TTITLE8=Mary Ann
TTITLE9=I Love The Dead
EXTD=YEAR: 1973
EXTT0=
EXTT1=
EXTT2=
EXTT3=
EXTT4=
EXTT5=
EXTT6=
EXTT7=
EXTT8=
EXTT9=
PLAYORDER=
